
<svg
    viewBox="0 0 140 140"
    xmlns="http://www.w3.org/2000/svg"
>
    <mask id="mask0" mask-type="alpha">
        <path
            fill="#435acb"
            d="M62,-31.6C73.5,-15.9,71.2,12,58.6,35.7C46,59.5,23,79.1,1,78.5C-21,78,-42,57.2,-53.9,33.8C-65.8,10.5,-68.7,-15.4,-58.2,-30.5C-47.7,-45.6,-23.8,-50,0.7,-50.4C25.2,-50.8,50.5,-47.3,62,-31.6Z"
            transform="translate(70 50)"
        />
    </mask>
    <g mask="url(#mask0)">
        <path
            fill="#435acb"
            d="M62,-31.6C73.5,-15.9,71.2,12,58.6,35.7C46,59.5,23,79.1,1,78.5C-21,78,-42,57.2,-53.9,33.8C-65.8,10.5,-68.7,-15.4,-58.2,-30.5C-47.7,-45.6,-23.8,-50,0.7,-50.4C25.2,-50.8,50.5,-47.3,62,-31.6Z"
            transform="translate(70 50)"
        />
    </g>
</svg>